<svg width="156" height="150" viewBox="0 0 156 150" fill="none" xmlns="http://www.w3.org/2000/svg">
<path d="M82.4505 5.07993L101.634 42.5458C102.942 45.0988 105.388 46.8759 108.22 47.3302L149.78 53.9977C153.805 54.6434 155.407 59.575 152.531 62.4631L122.827 92.2857C120.803 94.3179 119.868 97.1933 120.311 100.027L126.813 141.614C127.443 145.641 123.248 148.689 119.612 146.846L82.0699 127.811C79.5117 126.514 76.4883 126.514 73.9301 127.811L36.3881 146.846C32.7524 148.689 28.5574 145.641 29.187 141.614L35.6887 100.027C36.1317 97.1933 35.1975 94.3179 33.1733 92.2857L3.4694 62.4631C0.592834 59.575 2.19522 54.6434 6.21995 53.9977L47.7803 47.3302C50.6123 46.8759 53.0583 45.0988 54.3655 42.5458L73.5495 5.07994C75.4073 1.45171 80.5927 1.45171 82.4505 5.07993Z" stroke="#262626" stroke-width="4"/>
</svg>
