<svg width="69" height="30" viewBox="0 0 69 30" fill="none" xmlns="http://www.w3.org/2000/svg">
<g clip-path="url(#clip0_75_930)">
<g clip-path="url(#clip1_75_930)">
<path d="M53.3999 -0.0165997C45.1156 -0.0165997 38.3999 6.69913 38.3999 14.9834C38.3999 23.2677 45.1156 29.9833 53.3999 29.9833C61.6842 29.9833 68.3999 23.2677 68.3999 14.9834C68.3999 6.69913 61.6842 -0.0165997 53.3999 -0.0165997Z" fill="#666666"/>
<path d="M68.3999 -15C60.1156 -15 53.3999 -8.28427 53.3999 0C53.3999 8.28427 60.1156 15 68.3999 15C76.6842 15 83.3999 8.28427 83.3999 0C83.3999 -8.28427 76.6842 -15 68.3999 -15Z" fill="#141414"/>
<path d="M38.3999 -15C30.1156 -15 23.3999 -8.28427 23.3999 0C23.3999 8.28427 30.1156 15 38.3999 15C46.6842 15 53.3999 8.28427 53.3999 0C53.3999 -8.28427 46.6842 -15 38.3999 -15Z" fill="#141414"/>
<path d="M68.3999 15C60.1156 15 53.3999 21.7157 53.3999 30C53.3999 38.2843 60.1156 45 68.3999 45C76.6842 45 83.3999 38.2843 83.3999 30C83.3999 21.7157 76.6842 15 68.3999 15Z" fill="#141414"/>
<path d="M38.3999 15C30.1156 15 23.3999 21.7157 23.3999 30C23.3999 38.2843 30.1156 45 38.3999 45C46.6842 45 53.3999 38.2843 53.3999 30C53.3999 21.7157 46.6842 15 38.3999 15Z" fill="#141414"/>
</g>
<g clip-path="url(#clip2_75_930)">
<path d="M23.3999 5.99004C18.4293 5.99004 14.3999 10.0195 14.3999 14.99C14.3999 19.9606 18.4293 23.99 23.3999 23.99C28.3705 23.99 32.3999 19.9606 32.3999 14.99C32.3999 10.0195 28.3705 5.99004 23.3999 5.99004Z" fill="#333333"/>
<path d="M32.3999 -3C27.4293 -3 23.3999 1.02944 23.3999 6C23.3999 10.9706 27.4293 15 32.3999 15C37.3705 15 41.3999 10.9706 41.3999 6C41.3999 1.02944 37.3705 -3 32.3999 -3Z" fill="#141414"/>
<path d="M14.3999 -3C9.42934 -3 5.3999 1.02944 5.3999 6C5.3999 10.9706 9.42934 15 14.3999 15C19.3705 15 23.3999 10.9706 23.3999 6C23.3999 1.02944 19.3705 -3 14.3999 -3Z" fill="#141414"/>
<path d="M32.3999 15C27.4293 15 23.3999 19.0294 23.3999 24C23.3999 28.9706 27.4293 33 32.3999 33C37.3705 33 41.3999 28.9706 41.3999 24C41.3999 19.0294 37.3705 15 32.3999 15Z" fill="#141414"/>
<path d="M14.3999 15C9.42934 15 5.3999 19.0294 5.3999 24C5.3999 28.9706 9.42934 33 14.3999 33C19.3705 33 23.3999 28.9706 23.3999 24C23.3999 19.0294 19.3705 15 14.3999 15Z" fill="#141414"/>
</g>
<g clip-path="url(#clip3_75_930)">
<path d="M4.1999 10.7954C1.88031 10.7954 -9.82285e-05 12.6758 -9.82285e-05 14.9953C-9.82285e-05 17.3149 1.88031 19.1953 4.1999 19.1953C6.5195 19.1953 8.3999 17.3149 8.3999 14.9953C8.3999 12.6758 6.5195 10.7954 4.1999 10.7954Z" fill="#333333"/>
<path d="M8.4001 6.6C6.0805 6.6 4.2001 8.4804 4.2001 10.8C4.2001 13.1196 6.0805 15 8.4001 15C10.7197 15 12.6001 13.1196 12.6001 10.8C12.6001 8.4804 10.7197 6.6 8.4001 6.6Z" fill="#141414"/>
<path d="M0.000195026 6.6C-2.3194 6.6 -4.19981 8.4804 -4.19981 10.8C-4.19981 13.1196 -2.3194 15 0.000195026 15C2.31979 15 4.2002 13.1196 4.2002 10.8C4.2002 8.4804 2.31979 6.6 0.000195026 6.6Z" fill="#141414"/>
<path d="M8.4001 15C6.0805 15 4.2001 16.8804 4.2001 19.2C4.2001 21.5196 6.0805 23.4 8.4001 23.4C10.7197 23.4 12.6001 21.5196 12.6001 19.2C12.6001 16.8804 10.7197 15 8.4001 15Z" fill="#141414"/>
<path d="M0.000195026 15C-2.3194 15 -4.19981 16.8804 -4.19981 19.2C-4.19981 21.5196 -2.3194 23.4 0.000195026 23.4C2.31979 23.4 4.2002 21.5196 4.2002 19.2C4.2002 16.8804 2.31979 15 0.000195026 15Z" fill="#141414"/>
</g>
</g>
<defs>
<clipPath id="clip0_75_930">
<rect width="68.4" height="30" fill="white" transform="matrix(-1 0 0 -1 68.3999 30)"/>
</clipPath>
<clipPath id="clip1_75_930">
<rect width="30" height="30" fill="white" transform="matrix(-1 0 0 -1 68.3999 30)"/>
</clipPath>
<clipPath id="clip2_75_930">
<rect width="18" height="18" fill="white" transform="matrix(-1 0 0 -1 32.3999 24)"/>
</clipPath>
<clipPath id="clip3_75_930">
<rect width="8.4" height="8.4" fill="white" transform="matrix(-1 0 0 -1 8.3999 19.2)"/>
</clipPath>
</defs>
</svg>
