<svg width="1920" height="331" viewBox="0 0 1920 331" fill="none" xmlns="http://www.w3.org/2000/svg">
<g clip-path="url(#clip0_277_3)">
<path fill-rule="evenodd" clip-rule="evenodd" d="M1834.55 5.96278C1834.02 5.20152 1833.25 5.47834 1833.73 2.18414C1835.52 -3.21114 1833.24 3.19732 1833.45 2.28103C1833.71 3.87277 1834.69 3.09766 1835.29 3.01185C1835.11 3.72605 1834.86 4.87764 1834.55 5.96278Z" fill="#1A1A1A"/>
<path fill-rule="evenodd" clip-rule="evenodd" d="M1885.71 341.661C1892.88 335.266 1899.2 329.187 1905.34 323.338C1912.51 332.936 1919.87 343.173 1927.04 353.271C1921.56 360.261 1915.52 367.408 1909.3 375.306C1901.4 363.893 1893.83 352.828 1885.71 341.661Z" fill="#1A1A1A"/>
<path fill-rule="evenodd" clip-rule="evenodd" d="M1908.31 320.648C1913.97 315.701 1919.39 310.679 1924.47 306.015C1930.83 314.422 1937.42 322.588 1944.1 331.3C1939.45 337.033 1934.71 343.084 1929.65 349.891C1922.53 340.089 1915.33 329.977 1908.31 320.648H1908.31Z" fill="#1A1A1A"/>
<path fill-rule="evenodd" clip-rule="evenodd" d="M1793.99 350.874C1805.15 343.02 1815.58 335.499 1825.24 328.606C1833.34 340.645 1841.36 352.64 1849.35 365.376C1839.97 374.044 1830.38 383.694 1819.41 393.064C1811 378.307 1802.26 364.532 1793.99 350.874Z" fill="#1A1A1A"/>
<path fill-rule="evenodd" clip-rule="evenodd" d="M1829.86 325.392C1839.11 320.044 1847.3 314.145 1855.27 308.653C1862.61 318.474 1870.2 328.772 1877.54 339.516C1870.07 346.505 1862.41 353.639 1853.82 361.822C1845.64 349.005 1837.99 336.93 1829.86 325.392Z" fill="#1A1A1A"/>
<path fill-rule="evenodd" clip-rule="evenodd" d="M1858.89 305.732C1866.56 300.799 1873.56 295.8 1880.29 291.6C1887.03 300.007 1894.21 309.539 1901.06 319.261C1894.79 324.761 1888.1 330.129 1880.89 336.291C1873.83 326.026 1866.29 315.825 1858.89 305.732Z" fill="#1A1A1A"/>
<path fill-rule="evenodd" clip-rule="evenodd" d="M1883.5 289.552C1889.92 285.751 1895.72 281.704 1901.47 278.398C1907.86 285.903 1913.99 293.707 1920.52 302.092C1915.39 306.56 1909.74 311.116 1904.07 316.179C1897.29 307.302 1890.26 297.898 1883.5 289.552Z" fill="#1A1A1A"/>
<path fill-rule="evenodd" clip-rule="evenodd" d="M1517.36 248.444C1540.25 243.632 1561.28 238.89 1581.09 234.378C1588.72 246.672 1596.51 258.412 1603.81 271.01C1584.59 276.35 1563.4 283.232 1539.92 290.241C1532.29 275.733 1524.88 262.008 1517.35 248.444H1517.36Z" fill="#1A1A1A"/>
<path fill-rule="evenodd" clip-rule="evenodd" d="M1649.35 234.561C1665.33 231.023 1679.39 227.535 1693.38 224.897C1700.25 234.176 1707.72 243.787 1715.17 253.864C1701.52 258.005 1687.19 262.451 1671.79 267.37C1664.61 256.319 1656.81 244.969 1649.35 234.558V234.561Z" fill="#1A1A1A"/>
<path fill-rule="evenodd" clip-rule="evenodd" d="M1668.15 162.34C1680.88 161.831 1692.79 161.061 1704.28 160.452C1710.74 167.5 1717.07 174.374 1723.15 181.516C1712.01 182.526 1700.17 183.811 1687.58 185.649C1681.3 177.599 1675.03 169.803 1668.15 162.34Z" fill="#1A1A1A"/>
<path fill-rule="evenodd" clip-rule="evenodd" d="M1715.11 332.288C1729.73 325.124 1743.22 318.469 1755.62 311.872C1763.61 323.983 1772.12 336.983 1779.8 350.395C1767.72 358.749 1754.73 367.323 1740.45 376.557C1732.2 361.089 1723.58 346.719 1715.11 332.288Z" fill="#1A1A1A"/>
<path fill-rule="evenodd" clip-rule="evenodd" d="M1762.41 310.034C1774.48 303.866 1785.49 298.474 1795.92 293.322C1803.12 303.531 1810.71 314.095 1818.34 324.838C1808.32 331.654 1797.35 339.167 1785.79 347.07C1777.87 333.738 1770.22 321.946 1762.41 310.031V310.034Z" fill="#1A1A1A"/>
<path fill-rule="evenodd" clip-rule="evenodd" d="M1802.36 289.566C1812 285.125 1821.11 280.796 1829.73 276.489C1836.61 285.294 1843.53 294.587 1850.45 304.135C1842.28 309.779 1833.74 315.172 1824.41 320.556C1817.19 310.347 1809.72 299.899 1802.36 289.568V289.566Z" fill="#1A1A1A"/>
<path fill-rule="evenodd" clip-rule="evenodd" d="M1834.72 273.967C1842.56 269.543 1850.06 266.279 1857.5 263.046C1863.98 271.279 1870.63 279.691 1877.46 288.193C1870.42 292.137 1863.06 296.716 1855.64 301.801C1848.77 292.392 1841.59 282.961 1834.72 273.967Z" fill="#1A1A1A"/>
<path fill-rule="evenodd" clip-rule="evenodd" d="M1860.76 262.141C1867.38 258.943 1873.91 255.937 1880.26 253.277C1885.89 260.369 1891.85 267.436 1897.73 274.506C1891.96 278.075 1885.84 281.917 1879.65 286.036C1873.27 277.942 1866.83 269.842 1860.76 262.141H1860.76Z" fill="#1A1A1A"/>
<path fill-rule="evenodd" clip-rule="evenodd" d="M1902.78 242.688C1908.03 240.784 1912.62 238.649 1917.18 236.548C1922.08 242.063 1927.18 247.854 1931.87 253.31C1927.74 255.976 1923.71 258.846 1918.77 261.374C1913.59 255.154 1908.24 248.87 1902.78 242.686V242.688Z" fill="#1A1A1A"/>
<path fill-rule="evenodd" clip-rule="evenodd" d="M1919.6 235.563C1924.03 233.47 1928.02 231.386 1931.96 229.844C1936.52 234.791 1940.75 239.607 1945.47 244.956C1941.87 247.295 1938.16 249.554 1934.33 252.142C1929.31 246.525 1924.59 240.997 1919.6 235.563Z" fill="#1A1A1A"/>
<path fill-rule="evenodd" clip-rule="evenodd" d="M1730.31 195.645C1740.97 194.183 1751.12 192.935 1760.97 191.396C1767.12 198.756 1773.31 205.854 1779.82 213.243C1770.43 215.219 1760.44 217.085 1749.79 219.709C1743.25 211.477 1736.7 203.551 1730.31 195.645H1730.31Z" fill="#1A1A1A"/>
<path fill-rule="evenodd" clip-rule="evenodd" d="M1736.03 126.179C1745.22 126.658 1753.94 127.079 1762.25 127.472C1767.37 132.543 1772.44 137.687 1777.67 142.597C1769.36 142.647 1761.04 142.531 1752.1 142.409C1746.91 136.917 1741.41 131.547 1736.03 126.179H1736.03Z" fill="#1A1A1A"/>
<path fill-rule="evenodd" clip-rule="evenodd" d="M1557.65 337.619C1581.03 328.08 1602.47 319.645 1622.87 311.847C1630.82 326.508 1639.33 342.262 1647.09 359.14C1627.06 369.587 1606.08 380.195 1582.62 391.545C1574.7 373.205 1566.13 355.034 1557.65 337.619H1557.65Z" fill="#1A1A1A"/>
<path fill-rule="evenodd" clip-rule="evenodd" d="M1690.01 285.643C1704.81 280.156 1718.89 275.276 1731.94 270.473C1739.55 281.327 1747.29 292.835 1754.83 304.47C1742.35 310.842 1728.61 317.314 1714.56 323.861C1706.38 311.044 1698.21 297.851 1690.02 285.646L1690.01 285.643Z" fill="#1A1A1A"/>
<path fill-rule="evenodd" clip-rule="evenodd" d="M1779.78 254.866C1790 251.414 1799.32 248.261 1808.2 245.014C1814.64 252.925 1821.38 261.521 1827.84 270.357C1819.39 274.432 1810.13 278.756 1800.78 283.224C1794.03 273.407 1786.75 263.788 1779.78 254.866H1779.78Z" fill="#1A1A1A"/>
<path fill-rule="evenodd" clip-rule="evenodd" d="M1813.28 243.444C1821.74 240.609 1829.67 238.104 1837.27 235.815C1843.64 243.314 1849.82 250.926 1856.18 258.498C1848.95 261.579 1841.59 264.674 1833.62 268.524C1826.71 259.682 1820.1 251.167 1813.28 243.444Z" fill="#1A1A1A"/>
<path fill-rule="evenodd" clip-rule="evenodd" d="M1840.55 234.982C1847.59 232.714 1854.43 230.483 1861.14 228.216C1866.73 234.827 1872.32 241.324 1878.03 248.064C1871.85 250.824 1865.33 253.922 1858.69 256.906C1852.47 249.429 1846.34 242.041 1840.55 234.979L1840.55 234.982Z" fill="#1A1A1A"/>
<path fill-rule="evenodd" clip-rule="evenodd" d="M1865.57 226.873C1871.58 225.066 1877.47 223.327 1882.85 221.597C1888.47 227.845 1893.8 233.658 1899.07 239.906C1894.02 241.891 1888.59 244.142 1882.65 246.976C1877.04 239.865 1871.13 233.202 1865.57 226.873Z" fill="#1A1A1A"/>
<path fill-rule="evenodd" clip-rule="evenodd" d="M1885.49 221.038C1890.95 219.535 1895.85 217.813 1900.77 216.401C1905.59 221.597 1910.51 227.183 1915.09 232.595C1910.65 234.536 1906.08 236.692 1900.77 238.489C1895.84 232.872 1890.61 226.79 1885.49 221.038H1885.49Z" fill="#1A1A1A"/>
<path fill-rule="evenodd" clip-rule="evenodd" d="M1903.39 215.56C1908.1 214.295 1912.54 213.198 1916.72 211.978C1921.14 216.786 1925.69 221.517 1929.88 226.226C1926.05 227.679 1921.85 229.393 1917.68 231.449C1913.02 225.999 1908.22 220.814 1903.39 215.56Z" fill="#1A1A1A"/>
<path fill-rule="evenodd" clip-rule="evenodd" d="M1918.65 211.374C1922.64 210.278 1926.46 209.115 1930.12 207.842C1934.2 212.229 1938.32 216.603 1942.17 220.869C1938.95 222.408 1935.4 223.936 1931.76 225.367C1927.4 220.761 1923.08 216.025 1918.65 211.374H1918.65Z" fill="#1A1A1A"/>
<path fill-rule="evenodd" clip-rule="evenodd" d="M1798.77 187.523C1806.76 186.709 1814.44 186.092 1821.81 185.286C1827.26 191.141 1832.82 197.137 1838.36 203.05C1831.25 204.24 1824.15 205.666 1816.18 207.277C1810.36 200.564 1804.61 193.887 1798.77 187.523Z" fill="#1A1A1A"/>
<path fill-rule="evenodd" clip-rule="evenodd" d="M1825.16 184.755C1832.1 183.883 1838.89 183.293 1844.99 182.482C1850.33 187.952 1855.61 193.547 1860.57 199.025C1854.54 200.193 1848.31 201.372 1841.58 202.446C1836.24 196.708 1830.61 190.59 1825.16 184.755Z" fill="#1A1A1A"/>
<path fill-rule="evenodd" clip-rule="evenodd" d="M1848.02 182.147C1854.36 181.538 1860.04 180.998 1865.55 180.469C1870.33 185.308 1875.34 190.496 1880.1 195.465C1874.8 196.462 1869.32 197.469 1863.55 198.69C1858.52 193.037 1853.23 187.457 1848.02 182.147Z" fill="#1A1A1A"/>
<path fill-rule="evenodd" clip-rule="evenodd" d="M1868.15 180.171C1873.55 179.656 1878.67 179.343 1883.56 178.892C1888.04 183.404 1892.81 188.395 1897.13 192.835C1892.47 193.619 1887.59 194.2 1882.59 194.986C1878.02 190.228 1872.93 185.04 1868.15 180.171H1868.15Z" fill="#1A1A1A"/>
<path fill-rule="evenodd" clip-rule="evenodd" d="M1885.96 178.717C1890.68 178.194 1895.09 177.555 1899.52 177.38C1903.68 181.513 1907.94 185.815 1912.15 190.261C1908.18 190.944 1903.96 191.728 1899.4 192.572C1895.01 187.899 1890.36 183.221 1885.96 178.717Z" fill="#1A1A1A"/>
<path fill-rule="evenodd" clip-rule="evenodd" d="M1901.57 177.308C1905.7 176.915 1909.5 176.553 1913.36 176.298C1917.42 180.215 1921.5 184.245 1925.03 187.988C1921.65 188.664 1918.02 189.361 1914.02 189.862C1909.95 185.524 1905.9 181.427 1901.57 177.308H1901.57Z" fill="#1A1A1A"/>
<path fill-rule="evenodd" clip-rule="evenodd" d="M1915.1 176.168C1918.8 175.791 1922.4 175.55 1925.63 175.202C1929.36 178.828 1933.03 182.568 1936.67 186.18C1933.62 186.892 1930.14 187.255 1926.86 187.736C1923.03 183.952 1919.24 180.085 1915.1 176.171V176.168Z" fill="#1A1A1A"/>
<path fill-rule="evenodd" clip-rule="evenodd" d="M1920.76 153.87C1915.12 153.382 1909.42 153.396 1903.21 153.114C1902.05 153.006 1900.73 152.909 1899.37 152.497C1905.85 153.114 1911.79 152.975 1917.52 153.319C1918.87 153.82 1919.9 153.64 1920.76 153.872V153.87Z" fill="#1A1A1A"/>
<path fill-rule="evenodd" clip-rule="evenodd" d="M1807.79 165.565C1814.98 165.109 1822.11 164.854 1828.55 164.439C1833.71 169.596 1838.81 174.842 1843.79 180.182C1837.42 180.821 1830.64 181.438 1823.88 182.222C1818.55 176.475 1813.03 170.772 1807.79 165.563L1807.79 165.565Z" fill="#1A1A1A"/>
<path fill-rule="evenodd" clip-rule="evenodd" d="M1831.68 164.259C1838.12 164.156 1844.22 164.026 1849.96 163.78C1854.61 168.547 1859.73 173.538 1864.23 178.296C1858.81 178.828 1852.92 179.24 1846.83 179.736C1841.9 174.54 1836.71 169.289 1831.68 164.261V164.259Z" fill="#1A1A1A"/>
<path fill-rule="evenodd" clip-rule="evenodd" d="M1852.72 163.758C1858.4 163.619 1863.74 163.628 1869 163.503C1873.47 167.752 1877.93 172.273 1882.26 176.929C1877.32 177.197 1872.2 177.554 1866.87 178.177C1862.43 173.441 1857.39 168.428 1852.72 163.755L1852.72 163.758Z" fill="#1A1A1A"/>
<path fill-rule="evenodd" clip-rule="evenodd" d="M1871.45 163.351C1876.47 163.248 1881.14 163.337 1885.68 163.19C1889.97 167.295 1894.14 171.387 1898.2 175.448C1893.92 175.636 1889.45 176.173 1884.67 176.691C1880.3 172.245 1875.84 167.653 1871.45 163.351Z" fill="#1A1A1A"/>
<path fill-rule="evenodd" clip-rule="evenodd" d="M1887.87 163.088C1892.36 163.174 1896.28 162.963 1900.38 163.002C1904.42 166.897 1908.35 170.645 1912.15 174.46C1908.37 174.8 1904.43 175.121 1900.25 175.381C1896.19 171.248 1892.07 167.34 1887.87 163.088Z" fill="#1A1A1A"/>
<path fill-rule="evenodd" clip-rule="evenodd" d="M1902.25 162.864C1906.27 162.819 1909.9 162.805 1913.53 162.675C1917.26 166.263 1920.86 169.809 1924.48 173.427C1921.23 174.053 1917.71 174.211 1914.03 174.465C1910.08 170.548 1906.37 166.764 1902.25 162.864H1902.25Z" fill="#1A1A1A"/>
<path fill-rule="evenodd" clip-rule="evenodd" d="M1915.23 162.717C1918.62 162.717 1922.06 162.869 1925 162.789C1928.4 165.964 1931.89 169.363 1935.33 172.619C1932.37 172.793 1929.33 173.04 1926.11 173.419C1922.64 169.823 1918.88 166.299 1915.23 162.717Z" fill="#1A1A1A"/>
<path fill-rule="evenodd" clip-rule="evenodd" d="M1789.78 146.437C1797.34 146.517 1804.64 146.625 1811.45 146.794C1816.43 151.771 1821.39 156.557 1826.29 161.493C1819.58 161.717 1812.53 162.052 1805.45 162.357C1800.14 157.003 1794.81 151.575 1789.78 146.44V146.437Z" fill="#1A1A1A"/>
<path fill-rule="evenodd" clip-rule="evenodd" d="M1814.64 147.018C1821.29 147.04 1827.73 147.331 1833.73 147.527C1838.44 152.098 1843.18 156.668 1847.75 161.208C1841.92 161.15 1835.67 161.244 1829.38 161.535C1824.57 156.485 1819.65 151.755 1814.64 147.018Z" fill="#1A1A1A"/>
<path fill-rule="evenodd" clip-rule="evenodd" d="M1836.76 147.577C1842.66 147.694 1848.37 147.926 1853.77 148.167C1858.07 152.294 1862.45 156.552 1866.83 161.028C1861.66 161.064 1856.24 161.167 1850.65 161.252C1846.09 156.646 1841.35 151.99 1836.76 147.577H1836.76Z" fill="#1A1A1A"/>
<path fill-rule="evenodd" clip-rule="evenodd" d="M1856.24 148.195C1861.61 148.499 1866.25 148.593 1871.14 148.87C1875.49 152.903 1879.44 156.776 1883.62 160.807C1878.95 160.829 1874.2 160.779 1869.12 160.879C1865.01 156.593 1860.63 152.336 1856.24 148.195Z" fill="#1A1A1A"/>
<path fill-rule="evenodd" clip-rule="evenodd" d="M1873.66 149.081C1878.12 149.166 1882.48 149.291 1886.83 149.546C1890.85 153.418 1894.7 157.095 1898.44 160.713C1894.55 160.909 1890.36 160.937 1885.8 160.837C1881.76 156.79 1877.73 152.998 1873.66 149.081Z" fill="#1A1A1A"/>
<path fill-rule="evenodd" clip-rule="evenodd" d="M1888.96 149.612C1893.21 149.903 1896.95 150.063 1900.54 150.207C1904.34 153.701 1908.22 157.225 1911.7 160.641C1908.15 160.699 1904.44 160.815 1900.37 160.713C1896.63 157.108 1892.85 153.441 1888.96 149.612Z" fill="#1A1A1A"/>
<path fill-rule="evenodd" clip-rule="evenodd" d="M1902.77 150.628C1906.55 150.941 1909.9 151.115 1913.31 151.317C1916.78 154.6 1920.42 157.986 1923.77 161.374C1920.57 161.128 1917.19 161.084 1913.67 160.94C1910.18 157.662 1906.7 154.387 1902.77 150.631V150.628Z" fill="#1A1A1A"/>
<path fill-rule="evenodd" clip-rule="evenodd" d="M1798.61 131.054C1805.53 131.447 1812.08 131.715 1818.41 132.23C1823.11 136.698 1827.64 141.022 1832.22 145.678C1825.97 145.258 1819.72 145.213 1812.95 145.017C1808.35 140.352 1803.54 135.696 1798.61 131.054H1798.61Z" fill="#1A1A1A"/>
<path fill-rule="evenodd" clip-rule="evenodd" d="M1821.58 132.676C1827.78 132.958 1833.48 133.49 1839.23 134.093C1843.59 138.105 1847.82 142.193 1852.16 146.357C1846.57 145.892 1841.14 145.878 1835.1 145.689C1830.55 141.249 1825.98 136.731 1821.58 132.676Z" fill="#1A1A1A"/>
<path fill-rule="evenodd" clip-rule="evenodd" d="M1841.88 134.317C1847.34 134.738 1852.4 135.275 1857.52 135.829C1861.67 139.577 1865.67 143.48 1869.84 147.395C1864.9 146.893 1860.05 146.791 1854.63 146.392C1850.56 142.47 1846.24 138.423 1841.88 134.317Z" fill="#1A1A1A"/>
<path fill-rule="evenodd" clip-rule="evenodd" d="M1860.01 136.009C1864.84 136.438 1869.39 136.698 1873.9 137.127C1877.79 140.759 1881.58 144.349 1885.44 148.031C1881.1 147.807 1876.82 147.616 1872.01 147.4C1867.9 143.536 1864.09 139.779 1860.01 136.009Z" fill="#1A1A1A"/>
<path fill-rule="evenodd" clip-rule="evenodd" d="M1876.14 137.398C1880.22 137.667 1884.27 138.052 1888.45 138.641C1892.12 141.983 1895.79 145.465 1899.35 148.798C1895.55 148.615 1891.62 148.239 1887.57 148.136C1883.63 144.452 1879.83 140.958 1876.14 137.398Z" fill="#1A1A1A"/>
<path fill-rule="evenodd" clip-rule="evenodd" d="M1900.92 141.241C1904.51 141.684 1907.94 142.091 1911.09 142.367C1914.33 145.338 1917.79 148.485 1921.12 151.611C1917.95 151.328 1914.69 151.253 1911.43 151.051C1908.12 147.81 1904.55 144.535 1900.92 141.243V141.241Z" fill="#1A1A1A"/>
<path fill-rule="evenodd" clip-rule="evenodd" d="M1913.03 142.534C1916.1 142.802 1919.03 142.999 1921.87 143.356C1924.85 146.218 1927.85 148.892 1930.71 151.688C1928.2 151.652 1925.33 151.447 1922.59 151.362C1919.53 148.513 1916.21 145.41 1913.03 142.534Z" fill="#1A1A1A"/>
<path fill-rule="evenodd" clip-rule="evenodd" d="M1806.1 118.384C1812.32 119.117 1818.33 119.823 1824.38 120.543C1828.67 124.523 1832.85 128.382 1837.25 132.43C1831.32 131.66 1825.74 131.325 1819.39 130.641C1815.05 126.45 1810.54 122.503 1806.1 118.384Z" fill="#1A1A1A"/>
<path fill-rule="evenodd" clip-rule="evenodd" d="M1827.16 120.833C1832.7 121.437 1838.27 122.22 1843.57 122.882C1847.49 126.58 1851.58 130.315 1855.68 134.143C1850.5 133.57 1845.49 133.169 1839.9 132.704C1835.5 128.593 1831.31 124.77 1827.16 120.831V120.833Z" fill="#1A1A1A"/>
<path fill-rule="evenodd" clip-rule="evenodd" d="M1846.1 123.178C1851.02 123.737 1855.85 124.399 1860.8 125.141C1864.57 128.673 1868.17 131.906 1872.11 135.525C1867.6 135.095 1863 134.733 1858.16 134.412C1854.14 130.561 1849.98 126.738 1846.1 123.178Z" fill="#1A1A1A"/>
<path fill-rule="evenodd" clip-rule="evenodd" d="M1862.95 125.476C1867.32 126.143 1871.69 126.719 1875.84 127.278C1879.44 130.578 1883.21 133.888 1886.79 137.138C1882.68 136.718 1878.63 136.275 1874.36 135.793C1870.41 132.225 1866.67 128.848 1862.95 125.476Z" fill="#1A1A1A"/>
<path fill-rule="evenodd" clip-rule="evenodd" d="M1889.21 130.118C1892.97 130.722 1896.45 131.137 1899.72 131.558C1903.09 134.644 1906.5 137.684 1909.71 140.792C1906.49 140.458 1903.2 140.125 1899.55 139.66C1896.15 136.507 1892.76 133.412 1889.21 130.121V130.118Z" fill="#1A1A1A"/>
<path fill-rule="evenodd" clip-rule="evenodd" d="M1902.14 132.485C1905.47 132.928 1908.43 133.393 1911.46 133.952C1914.6 136.748 1917.69 139.516 1920.99 142.495C1918.15 142.124 1915.08 141.891 1912.02 141.637C1908.8 138.57 1905.54 135.533 1902.14 132.482L1902.14 132.485Z" fill="#1A1A1A"/>
<path fill-rule="evenodd" clip-rule="evenodd" d="M1792.74 103.676C1799.3 104.703 1805.5 105.619 1811.46 106.646C1815.74 110.201 1819.8 113.855 1824.19 117.858C1818.19 116.941 1812.12 116.288 1805.93 115.488C1801.51 111.413 1797.15 107.546 1792.74 103.673L1792.74 103.676Z" fill="#1A1A1A"/>
<path fill-rule="evenodd" clip-rule="evenodd" d="M1814.29 106.942C1820.16 107.95 1825.76 108.736 1831.25 109.686C1835.06 113.21 1839.05 116.609 1843.09 120.302C1837.76 119.532 1832.26 118.857 1826.69 118.013C1822.61 114.314 1818.54 110.71 1814.29 106.942Z" fill="#1A1A1A"/>
<path fill-rule="evenodd" clip-rule="evenodd" d="M1799.09 93.8459C1805.06 94.8951 1810.78 96.0467 1816.37 97.0875C1820.39 100.639 1824.33 104.047 1828.26 107.466C1822.99 106.563 1817.26 105.691 1811.25 104.673C1807.28 101.149 1803.14 97.5056 1799.09 93.8459H1799.09Z" fill="#1A1A1A"/>
<path fill-rule="evenodd" clip-rule="evenodd" d="M1734.19 97.5747C1742.77 98.7567 1750.76 99.8557 1758.37 100.645C1763.43 104.994 1768.06 109.456 1772.54 113.642C1765.16 113.024 1757.3 112.138 1748.97 111.244C1744.23 106.729 1739.29 102.153 1734.19 97.5775L1734.19 97.5747Z" fill="#1A1A1A"/>
<path fill-rule="evenodd" clip-rule="evenodd" d="M1917.39 191.7C1921.25 191.105 1924.8 190.435 1928.18 189.724C1932.4 194.003 1936.36 198.114 1940.06 202.009C1936.95 202.895 1933.59 203.999 1930.14 205.038C1925.81 200.467 1921.8 196.268 1917.39 191.697V191.7Z" fill="#1A1A1A"/>
<path fill-rule="evenodd" clip-rule="evenodd" d="M1903.22 194.67C1907.61 193.923 1911.68 193.079 1915.66 192.273C1919.91 196.785 1924.15 201.129 1928.4 205.619C1924.76 206.804 1920.86 207.958 1916.88 209.121C1912.37 204.215 1907.67 199.299 1903.22 194.67Z" fill="#1A1A1A"/>
<path fill-rule="evenodd" clip-rule="evenodd" d="M1885.29 197.264C1890.33 196.262 1895.15 195.512 1899.64 194.859C1904.24 199.438 1908.91 204.448 1913.49 209.34C1909.25 210.35 1904.66 211.438 1900.09 212.944C1895.06 207.429 1890.27 202.308 1885.28 197.264H1885.29Z" fill="#1A1A1A"/>
<path fill-rule="evenodd" clip-rule="evenodd" d="M1866.85 200.52C1872.53 199.415 1878.12 198.167 1883.02 197.201C1888.05 202.469 1893.14 207.662 1897.95 213.046C1893.1 214.522 1887.98 216.133 1882.39 217.45C1877.27 211.767 1872.1 206.253 1866.85 200.523V200.52Z" fill="#1A1A1A"/>
<path fill-rule="evenodd" clip-rule="evenodd" d="M1844.93 204.423C1851.51 203.282 1858.03 202.294 1863.66 200.675C1868.97 206.51 1874.39 212.396 1879.42 218.126C1873.83 219.74 1867.96 221.381 1861.74 222.942C1856.05 216.578 1850.61 210.555 1844.93 204.423H1844.93Z" fill="#1A1A1A"/>
<path fill-rule="evenodd" clip-rule="evenodd" d="M1820.1 209.661C1827.83 208.069 1834.93 206.646 1841.61 205.135C1847.34 211.418 1853.14 217.697 1858.79 224.244C1851.83 226.168 1845.4 228.568 1838.02 230.447C1831.93 223.457 1825.91 216.498 1820.1 209.661Z" fill="#1A1A1A"/>
<path fill-rule="evenodd" clip-rule="evenodd" d="M1791.4 216.213C1800.44 214.447 1808.45 212.777 1816.52 211.025C1822.55 217.926 1828.56 224.952 1834.58 231.82C1827.04 234.306 1819.06 236.739 1810.68 239.231C1804.05 231.172 1797.75 223.596 1791.4 216.213Z" fill="#1A1A1A"/>
<path fill-rule="evenodd" clip-rule="evenodd" d="M1492.68 176.32C1498.37 171.786 1503.94 167.21 1509.03 163.032C1517.25 167.675 1525.44 171.999 1533.71 176.901C1529.09 181.704 1524.53 186.74 1519 191.891C1510.09 186.637 1501.18 181.414 1492.69 176.32H1492.68Z" fill="#1A1A1A"/>
<path fill-rule="evenodd" clip-rule="evenodd" d="M1771.73 167.013C1773.99 164.74 1776.2 162.625 1778.5 160.815C1781.7 163.052 1785.04 165.435 1788.33 167.702C1786.29 169.853 1784.35 172.165 1782.28 174.764C1778.73 172.12 1775.2 169.496 1771.72 167.013H1771.73Z" fill="#1A1A1A"/>
<path fill-rule="evenodd" clip-rule="evenodd" d="M1861.29 83.0497C1862.17 81.7099 1862.98 80.3147 1863.72 78.9167C1866.6 81.2947 1869.68 83.8691 1872.7 86.3771C1872.23 87.9855 1871.57 89.4554 1870.81 91.0305C1867.65 88.3813 1864.44 85.6879 1861.29 83.0497H1861.29Z" fill="#1A1A1A"/>
<path fill-rule="evenodd" clip-rule="evenodd" d="M1393.43 315.482C1400.54 309.931 1407.24 304.614 1413.76 299.933C1422.24 302.535 1430.56 305.616 1439.29 308.556C1432.96 313.671 1426.73 319.2 1420.32 325.157C1411.22 321.741 1401.9 318.663 1393.43 315.479L1393.43 315.482Z" fill="#1A1A1A"/>
<path fill-rule="evenodd" clip-rule="evenodd" d="M1840.99 101.054C1841.69 100.287 1842.24 99.5401 1842.79 98.8203C1844.67 100.177 1846.55 101.508 1848.37 102.837C1847.95 103.659 1847.51 104.625 1847.03 105.434C1845.01 103.98 1843.07 102.538 1840.99 101.052V101.054Z" fill="#1A1A1A"/>
<path fill-rule="evenodd" clip-rule="evenodd" d="M1776.45 65.9726C1778.14 65.2556 1779.74 64.6217 1781.33 64.0376C1783.71 65.657 1786.1 67.3318 1788.54 69.0979C1787.21 69.898 1785.75 70.6094 1784.08 71.5284C1781.6 69.5934 1779.02 67.7858 1776.45 65.9754V65.9726Z" fill="#1A1A1A"/>
<path fill-rule="evenodd" clip-rule="evenodd" d="M1417.23 131.665C1423.92 128.919 1430.14 126.522 1436.06 124.263C1443.71 127.425 1450.95 130.453 1457.88 133.664C1452.53 136.324 1446.91 139.048 1440.61 142.398C1432.53 138.641 1424.67 134.915 1417.23 131.665Z" fill="#1A1A1A"/>
<path fill-rule="evenodd" clip-rule="evenodd" d="M1803.83 61.693C1804.85 61.2141 1805.62 60.5857 1806.42 60.1123C1808.37 61.3802 1810.22 62.8113 1812.1 64.1927C1811.41 64.7989 1810.78 65.5159 1809.95 66.0695C1808.08 64.6494 1805.96 63.1463 1803.83 61.693Z" fill="#1A1A1A"/>
<path fill-rule="evenodd" clip-rule="evenodd" d="M1846.39 51.2345C1846.93 50.8414 1847.52 50.5396 1848.06 50.177C1849.46 51.2594 1850.99 52.3778 1852.34 53.4103C1851.87 53.8311 1851.47 54.2574 1851.05 54.7446C1849.52 53.5902 1847.92 52.4137 1846.39 51.2345Z" fill="#1A1A1A"/>
<path fill-rule="evenodd" clip-rule="evenodd" d="M1388.29 221.78C1393.05 219.507 1396.91 217.362 1400.98 215.308C1406.95 216.993 1412.68 218.519 1418.38 220.169C1414.88 222.275 1410.92 224.731 1406.73 227.056C1400.48 225.362 1394.36 223.518 1388.29 221.78Z" fill="#1A1A1A"/>
<path fill-rule="evenodd" clip-rule="evenodd" d="M1739.02 54.9771C1740.69 54.4844 1742.4 54.1466 1743.85 53.6428C1746.18 55.157 1748.63 56.7294 1750.84 58.1883C1749.43 58.8028 1748.12 59.326 1746.57 59.9018C1744.26 58.3156 1741.55 56.5661 1739.02 54.9771Z" fill="#1A1A1A"/>
<path fill-rule="evenodd" clip-rule="evenodd" d="M1800.65 17.545C1801.71 17.3484 1802.77 17.1795 1803.81 17.127C1805.56 18.2342 1807.23 19.4993 1808.9 20.7118C1807.91 20.8834 1806.91 21.0717 1805.91 21.2904C1804.12 19.9838 1802.39 18.7408 1800.65 17.545Z" fill="#1A1A1A"/>
<path fill-rule="evenodd" clip-rule="evenodd" d="M1827.08 63.4008C1828.05 63.0963 1829 62.8804 1829.89 62.6091C1831.39 63.6832 1833.08 64.8625 1834.65 65.9255C1833.76 66.2411 1832.93 66.5345 1832.03 66.8556C1830.34 65.6819 1828.77 64.5773 1827.08 63.4008H1827.08Z" fill="#1A1A1A"/>
<path fill-rule="evenodd" clip-rule="evenodd" d="M1849.81 88.099C1850.77 87.7834 1851.68 87.4208 1852.56 87.1882C1853.97 88.1433 1855.52 89.1675 1857.01 90.1198C1856.12 90.4354 1855.22 90.7676 1854.39 91.144C1852.91 90.1392 1851.36 89.1288 1849.81 88.099Z" fill="#1A1A1A"/>
<path fill-rule="evenodd" clip-rule="evenodd" d="M1699.78 101.309C1701.87 100.764 1703.88 100.207 1705.8 99.6924C1708.34 101.057 1710.82 102.355 1713.49 103.784C1711.51 104.235 1709.57 104.852 1707.62 105.425C1705.1 104.019 1702.33 102.624 1699.78 101.309Z" fill="#1A1A1A"/>
<path fill-rule="evenodd" clip-rule="evenodd" d="M1873.16 109.716C1874.05 109.403 1874.96 108.991 1875.78 108.661C1877.16 109.583 1878.41 110.428 1879.73 111.327C1878.98 111.676 1878.22 112.069 1877.39 112.49C1876.01 111.532 1874.61 110.696 1873.16 109.713V109.716Z" fill="#1A1A1A"/>
<path fill-rule="evenodd" clip-rule="evenodd" d="M1861.8 73.073C1862.59 72.8709 1863.35 72.7934 1864.13 72.6494C1865.27 73.4245 1866.47 74.291 1867.62 75.019C1866.97 75.1574 1866.19 75.3567 1865.54 75.5782C1864.28 74.7062 1863.08 73.8647 1861.8 73.0757V73.073Z" fill="#1A1A1A"/>
<path fill-rule="evenodd" clip-rule="evenodd" d="M1287 272.785C1293.36 270.875 1300.09 268.607 1306.88 266.639C1313.18 267.985 1319.98 268.942 1326.37 270.119C1320.26 271.985 1313.64 274.172 1307.53 276.339C1300.38 275.14 1293.78 274.036 1287 272.787V272.785Z" fill="#1A1A1A"/>
<path fill-rule="evenodd" clip-rule="evenodd" d="M1775.8 28.9585C1777.2 29.0139 1778.46 29.0277 1779.73 29.0388C1781.21 29.9772 1782.75 30.9572 1784.34 32.0063C1783.09 31.9482 1781.94 32.0534 1780.67 32.0423C1779.07 30.9959 1777.48 29.9385 1775.8 28.9585H1775.8Z" fill="#1A1A1A"/>
<path fill-rule="evenodd" clip-rule="evenodd" d="M1601.12 149.496C1604.29 148.726 1607.68 148.267 1610.91 147.569C1614.09 148.674 1616.99 149.64 1619.84 150.775C1616.9 151.312 1613.73 152.067 1610.42 152.823C1607.32 151.683 1604.14 150.586 1601.13 149.496H1601.12Z" fill="#1A1A1A"/>
<path fill-rule="evenodd" clip-rule="evenodd" d="M1611.93 206.848C1614.79 205.068 1617.61 203.296 1620.46 201.754C1624.44 203.28 1628.5 205.074 1632.58 206.804C1629.94 208.561 1627.31 210.275 1624.65 212.274C1620.22 210.269 1616.03 208.589 1611.93 206.845V206.848Z" fill="#1A1A1A"/>
<path fill-rule="evenodd" clip-rule="evenodd" d="M1681.11 136.026C1683.68 134.558 1686.06 133.249 1688.26 131.973C1691.65 133.847 1695.18 135.837 1698.71 137.864C1696.49 139.223 1694.51 140.856 1692.04 142.26C1688.29 140.159 1684.7 138.069 1681.11 136.026Z" fill="#1A1A1A"/>
</g>
<g clip-path="url(#clip1_277_3)">
<path fill-rule="evenodd" clip-rule="evenodd" d="M118.534 27.6612C118.95 27.0661 119.551 27.2825 119.176 24.7074C117.777 20.4897 119.559 25.4994 119.394 24.7831C119.187 26.0274 118.423 25.4215 117.956 25.3544C118.099 25.9127 118.293 26.813 118.534 27.6612Z" fill="#1A1A1A"/>
<path fill-rule="evenodd" clip-rule="evenodd" d="M29.6826 285.733C26.447 280.356 23.8076 274.442 21.2182 269.166C19.8409 271.291 15.8938 294.543 10.4409 331H22.2388C25.8116 304.238 28.4684 287.642 29.6826 285.733Z" fill="#1A1A1A"/>
<path fill-rule="evenodd" clip-rule="evenodd" d="M19.58 270.308C16.9646 265.316 14.5341 260.562 12.0753 256.95C10.7371 258.887 5.96097 287.387 -0.605957 331H10.0582C14.83 295.201 18.2984 272.358 19.58 270.308Z" fill="#1A1A1A"/>
<path fill-rule="evenodd" clip-rule="evenodd" d="M10.8982 255.5C8.69403 252.36 6.58991 249.378 4.51191 246.543C2.05095 260.772 -0.440478 274.812 -2.83181 288.765C-5.26449 302.935 -7.66453 317.034 -10.0015 330.97L-9.8448 330.998H-0.257701C3.31516 306.201 7.10996 280.949 10.8982 255.498V255.5Z" fill="#1A1A1A"/>
<path fill-rule="evenodd" clip-rule="evenodd" d="M3.64789 245.068C1.80706 242.131 0.0510921 239.519 -1.62001 237.059C-4.78815 252.678 -7.95194 268.127 -10.9982 283.279C-14.0728 298.585 -17.0908 313.716 -20 328.553V329.161C-17.2366 329.682 -14.397 330.199 -11.4813 330.671C-9.103 316.625 -6.58764 302.357 -4.05051 287.967C-1.55691 273.818 1.09771 259.534 3.64789 245.068Z" fill="#1A1A1A"/>
<path fill-rule="evenodd" clip-rule="evenodd" d="M120.499 331C114.226 324.906 108.264 319.236 102.606 313.45C99.1249 319.169 95.4846 325.071 91.853 331H120.499Z" fill="#1A1A1A"/>
<path fill-rule="evenodd" clip-rule="evenodd" d="M99.3774 310.526C92.9019 303.723 86.8942 298.083 81.2411 292.875C74.8548 301.673 68.9363 310.215 62.6914 319.682C65.4831 323.101 68.3336 326.94 71.3168 331.002H86.5743C90.8739 323.976 95.1387 317.183 99.3774 310.526Z" fill="#1A1A1A"/>
<path fill-rule="evenodd" clip-rule="evenodd" d="M78.5929 290.085C72.9921 285.086 68.0592 280.334 63.2701 275.762C57.6714 283.264 51.927 291.267 46.3262 299.161C50.6019 304.625 55.3214 310.213 60.1759 316.386C66.3468 307.464 72.2566 298.815 78.5929 290.085Z" fill="#1A1A1A"/>
<path fill-rule="evenodd" clip-rule="evenodd" d="M60.9505 273.658C56.5334 269.791 52.299 265.866 48.3345 262.219C43.3712 268.792 38.223 275.175 33.0073 281.985C36.6389 286.467 40.3423 291.198 44.2895 296.519C49.8489 288.856 55.4693 280.951 60.9527 273.658H60.9505Z" fill="#1A1A1A"/>
<path fill-rule="evenodd" clip-rule="evenodd" d="M34.5742 248.805C31.5344 245.795 28.5425 243.109 25.6529 240.512C21.5557 245.362 17.0798 250.696 12.9956 255.853C15.3108 258.965 17.998 262.289 20.6766 266.076C25.3287 259.986 29.872 254.676 34.5742 248.805Z" fill="#1A1A1A"/>
<path fill-rule="evenodd" clip-rule="evenodd" d="M23.9731 239.621C21.3903 237.093 18.777 234.799 16.5053 232.237C12.8411 236.559 8.99842 241.012 5.42773 245.334C7.37518 248.253 9.54675 251.179 11.8141 254.297C15.7764 249.441 19.9999 244.375 23.9731 239.621Z" fill="#1A1A1A"/>
<path fill-rule="evenodd" clip-rule="evenodd" d="M14.8602 230.761C12.7604 228.439 10.7477 226.325 8.81985 224.224C5.47111 228.035 2.01793 232.062 -1.15674 235.816C0.381636 238.225 2.19853 240.666 4.10246 243.354C7.67096 239.078 11.4462 234.795 14.8624 230.761H14.8602Z" fill="#1A1A1A"/>
<path fill-rule="evenodd" clip-rule="evenodd" d="M7.60802 223.053C5.77372 221.253 4.14178 219.379 2.39887 217.641C-0.501626 220.907 -3.56097 224.252 -6.46582 227.518C-5.24295 229.87 -3.81338 232.181 -2.49912 234.667C0.869202 230.885 4.38331 226.875 7.60802 223.053Z" fill="#1A1A1A"/>
<path fill-rule="evenodd" clip-rule="evenodd" d="M1.72202 216.732C0.187995 215.079 -1.20894 213.159 -2.41223 211.45C-5.11254 214.362 -7.65184 217.232 -10.5371 220.333C-9.35123 222.423 -8.1523 224.399 -6.88374 226.546C-4.04852 223.382 -1.11756 220.099 1.72419 216.732H1.72202Z" fill="#1A1A1A"/>
<path fill-rule="evenodd" clip-rule="evenodd" d="M6.45069 155.238C8.22624 154.283 9.89299 153.385 11.7208 152.654C11.7186 152.916 11.773 153.074 11.9384 153.056C9.99744 153.965 7.94119 155.168 6.32666 156.032C6.33319 155.679 6.33319 155.577 6.45069 155.238Z" fill="#1A1A1A"/>
<path fill-rule="evenodd" clip-rule="evenodd" d="M184.989 320.92C174.029 313.543 164.54 306.556 154.637 300.133C148.732 310.152 142.593 320.057 136.394 331.002H179.595C181.377 327.605 183.174 324.244 184.989 320.92Z" fill="#1A1A1A"/>
<path fill-rule="evenodd" clip-rule="evenodd" d="M150.198 297.287C141.488 291.148 133.341 285.268 125.802 279.88C119.478 289.291 113.216 298.668 106.98 308.624C114.3 315.4 121.791 322.943 130.354 330.269C136.918 318.732 143.742 307.964 150.198 297.287Z" fill="#1A1A1A"/>
<path fill-rule="evenodd" clip-rule="evenodd" d="M122.194 277.367C114.97 273.187 108.577 268.575 102.36 264.282C96.6247 271.96 90.6997 280.01 84.9727 288.408C90.8041 293.872 96.7857 299.449 103.49 305.846C109.878 295.826 115.849 286.387 122.194 277.367Z" fill="#1A1A1A"/>
<path fill-rule="evenodd" clip-rule="evenodd" d="M99.5296 261.999C93.5415 258.142 88.0821 254.234 82.8229 250.951C77.5594 257.523 71.9585 264.974 66.6123 272.574C71.5081 276.874 76.726 281.07 82.3573 285.887C87.8689 277.863 93.7547 269.889 99.5296 261.999Z" fill="#1A1A1A"/>
<path fill-rule="evenodd" clip-rule="evenodd" d="M80.3163 249.35C75.3074 246.379 70.7815 243.215 66.2925 240.631C61.301 246.498 56.5161 252.598 51.418 259.153C55.426 262.646 59.8366 266.208 64.2624 270.166C69.5543 263.226 75.0397 255.875 80.3163 249.35Z" fill="#1A1A1A"/>
<path fill-rule="evenodd" clip-rule="evenodd" d="M20.6178 149.308C19.4537 149.189 18.4006 149.064 17.4606 148.882C15.5327 150.78 13.7637 152.55 11.875 154.35C12.8172 154.48 13.7049 154.788 14.7059 155.021C16.6511 153.186 18.529 151.278 20.6178 149.308Z" fill="#1A1A1A"/>
<path fill-rule="evenodd" clip-rule="evenodd" d="M50.5954 230.045C47.0508 227.927 43.8414 225.682 40.5427 223.622C36.4563 228.478 32.2481 233.358 28.1182 238.32C31.0622 240.69 34.115 243.313 37.4006 245.948C41.7503 240.599 46.113 235.366 50.5954 230.045Z" fill="#1A1A1A"/>
<path fill-rule="evenodd" clip-rule="evenodd" d="M38.7017 222.962C35.7621 220.9 32.7963 219.043 29.9763 217.146C26.4665 221.19 22.7958 225.421 19.2729 229.692C21.6708 232.084 24.2188 234.349 26.8691 236.814C30.7618 232.315 34.7263 227.63 38.7017 222.962Z" fill="#1A1A1A"/>
<path fill-rule="evenodd" clip-rule="evenodd" d="M28.2205 216.022C25.5724 214.415 23.44 212.534 21.0857 211.002C17.7413 214.733 14.3664 218.424 11.2026 222.105C13.1305 224.122 15.2694 226.092 17.5628 228.301C21.2075 223.86 24.7651 219.866 28.2183 216.022H28.2205Z" fill="#1A1A1A"/>
<path fill-rule="evenodd" clip-rule="evenodd" d="M19.7541 209.978C17.5477 208.433 15.5436 206.866 13.4374 205.657C10.5151 208.821 7.44488 212.114 4.33984 215.817C6.01965 217.561 7.77997 219.264 9.74482 221.246C12.9717 217.593 16.4097 213.625 19.7541 209.978Z" fill="#1A1A1A"/>
<path fill-rule="evenodd" clip-rule="evenodd" d="M12.6934 204.992C10.8482 203.527 9.07699 202.294 7.5582 200.874C4.88182 203.772 2.12058 206.776 -0.544922 209.597C0.84549 211.238 2.24678 213.051 3.90918 214.828C6.82274 211.419 9.76893 208.206 12.6934 204.99V204.992Z" fill="#1A1A1A"/>
<path fill-rule="evenodd" clip-rule="evenodd" d="M6.47241 199.903C4.85135 198.847 3.54362 197.438 2.24242 196.228C-0.309929 198.886 -2.88622 201.682 -5.42334 204.527C-4.06339 205.761 -3.00589 207.408 -1.75474 208.907C0.912936 205.949 3.79821 202.824 6.47241 199.905V199.903Z" fill="#1A1A1A"/>
<path fill-rule="evenodd" clip-rule="evenodd" d="M1.52855 195.847C0.116374 194.82 -0.806216 193.45 -1.96381 192.275C-4.14843 194.547 -6.40921 196.966 -8.50244 199.273C-7.47106 200.563 -6.55935 202.004 -5.51926 203.493C-3.17144 200.937 -0.84103 198.375 1.52855 195.847Z" fill="#1A1A1A"/>
<path fill-rule="evenodd" clip-rule="evenodd" d="M366.163 217.215C348.294 213.454 331.874 209.747 316.41 206.219C310.45 215.83 304.366 225.007 298.67 234.856C313.671 239.03 330.221 244.41 348.546 249.889C354.508 238.547 360.288 227.818 366.165 217.215H366.163Z" fill="#1A1A1A"/>
<path fill-rule="evenodd" clip-rule="evenodd" d="M263.113 206.362C250.639 203.597 239.664 200.87 228.74 198.808C223.383 206.061 217.55 213.575 211.733 221.452C222.391 224.689 233.577 228.164 245.599 232.01C251.2 223.371 257.297 214.499 263.113 206.36V206.362Z" fill="#1A1A1A"/>
<path fill-rule="evenodd" clip-rule="evenodd" d="M248.436 149.906C238.501 149.507 229.206 148.906 220.237 148.43C215.191 153.939 210.251 159.312 205.503 164.896C214.203 165.685 223.442 166.69 233.27 168.126C238.175 161.834 243.071 155.74 248.436 149.906Z" fill="#1A1A1A"/>
<path fill-rule="evenodd" clip-rule="evenodd" d="M301.225 331C288.489 324.246 276.571 317.858 265.348 311.701C262.141 318.005 258.927 324.434 255.75 331H301.222H301.225Z" fill="#1A1A1A"/>
<path fill-rule="evenodd" clip-rule="evenodd" d="M257.723 307.748C243.101 299.973 230.218 292.476 217.613 285.768C211 297.207 204.226 309.509 197.485 321.788C201.611 324.839 205.81 327.899 210.117 331H246.374C250.214 323.054 253.99 315.33 257.723 307.748Z" fill="#1A1A1A"/>
<path fill-rule="evenodd" clip-rule="evenodd" d="M211.781 282.758C200.368 277.157 189.833 271.955 180.154 266.798C173.918 276.266 167.275 286.428 161.276 296.913C170.704 303.444 180.846 310.145 191.998 317.365C198.441 305.272 205.166 294.039 211.781 282.758Z" fill="#1A1A1A"/>
<path fill-rule="evenodd" clip-rule="evenodd" d="M174.856 265.361C165.427 260.54 156.835 256.325 148.688 252.297C143.072 260.278 137.147 268.536 131.191 276.935C139.014 282.262 147.578 288.135 156.597 294.314C162.786 283.892 168.754 274.673 174.856 265.359V265.361Z" fill="#1A1A1A"/>
<path fill-rule="evenodd" clip-rule="evenodd" d="M143.664 249.361C136.135 245.89 129.026 242.505 122.294 239.138C116.922 246.022 111.525 253.286 106.123 260.75C112.496 265.162 119.165 269.378 126.446 273.587C132.088 265.606 137.921 257.439 143.664 249.363V249.361Z" fill="#1A1A1A"/>
<path fill-rule="evenodd" clip-rule="evenodd" d="M118.401 237.167C112.283 233.709 106.425 231.157 100.613 228.63C95.5564 235.066 90.3669 241.642 85.0337 248.288C90.5301 251.371 96.2767 254.951 102.069 258.926C107.435 251.57 113.04 244.198 118.401 237.167Z" fill="#1A1A1A"/>
<path fill-rule="evenodd" clip-rule="evenodd" d="M98.0697 227.922C92.9062 225.423 87.808 223.073 82.8448 220.993C78.4494 226.537 73.7995 232.062 69.2104 237.589C73.7168 240.378 78.4886 243.382 83.3278 246.602C88.3063 240.274 93.3327 233.943 98.0675 227.922H98.0697Z" fill="#1A1A1A"/>
<path fill-rule="evenodd" clip-rule="evenodd" d="M65.2676 212.716C61.166 211.227 57.5845 209.558 54.0268 207.916C50.1994 212.227 46.2196 216.754 42.5532 221.019C45.7845 223.103 48.9265 225.347 52.7822 227.323C56.8251 222.46 61.0028 217.548 65.2676 212.714V212.716Z" fill="#1A1A1A"/>
<path fill-rule="evenodd" clip-rule="evenodd" d="M52.1358 207.146C48.6805 205.51 45.5602 203.88 42.49 202.675C38.9258 206.542 35.6271 210.307 31.939 214.488C34.7503 216.317 37.6442 218.082 40.6361 220.106C44.5549 215.715 48.2366 211.394 52.1358 207.146Z" fill="#1A1A1A"/>
<path fill-rule="evenodd" clip-rule="evenodd" d="M40.9603 202.073C38.1599 200.755 35.6184 199.388 32.9812 198.245C29.6325 201.829 26.3055 205.345 23.3267 208.894C25.5004 210.496 28.0571 212.03 30.5768 213.677C34.154 209.719 37.5768 205.884 40.9581 202.073H40.9603Z" fill="#1A1A1A"/>
<path fill-rule="evenodd" clip-rule="evenodd" d="M31.0602 197.745C28.5056 196.598 26.2144 195.518 23.995 194.281C21.3403 197.148 18.1896 200.517 15.4937 203.601C17.4172 204.992 19.6018 206.377 21.8103 207.946C24.7957 204.482 28.003 201.069 31.0602 197.745Z" fill="#1A1A1A"/>
<path fill-rule="evenodd" clip-rule="evenodd" d="M22.7677 193.655C20.6353 192.707 18.5095 191.77 16.6382 190.816C14.0358 193.577 11.5335 196.308 8.94629 199.007C10.5848 200.245 12.4756 201.387 14.2599 202.915C17.0777 199.734 19.8128 196.696 22.7677 193.657V193.655Z" fill="#1A1A1A"/>
<path fill-rule="evenodd" clip-rule="evenodd" d="M16.0921 190.288C14.2317 189.403 12.6215 188.414 10.8438 187.613C8.59171 189.92 6.2069 192.458 3.80469 194.951C5.28866 196.064 6.72259 197.319 8.34365 198.598C10.8677 195.821 13.4897 193.106 16.0921 190.288Z" fill="#1A1A1A"/>
<path fill-rule="evenodd" clip-rule="evenodd" d="M10.0753 186.834C8.66098 185.789 7.25751 184.807 5.8584 184.069C3.55192 186.488 1.46522 188.687 -0.636719 190.928C0.46212 192.11 1.68716 193.207 2.97966 194.376C5.38187 191.796 7.7645 189.338 10.0753 186.832V186.834Z" fill="#1A1A1A"/>
<path fill-rule="evenodd" clip-rule="evenodd" d="M5.04479 183.541C3.77188 182.848 2.56424 182.121 1.53503 181.212C-0.418942 183.279 -2.2032 185.148 -4.30078 187.386C-3.3956 188.392 -2.48389 189.375 -1.45033 190.39C0.649434 188.208 2.73396 186.062 5.04479 183.541Z" fill="#1A1A1A"/>
<path fill-rule="evenodd" clip-rule="evenodd" d="M199.909 175.941C191.593 174.798 183.668 173.822 175.976 172.619C171.178 178.373 166.346 183.921 161.258 189.697C168.589 191.242 176.392 192.701 184.704 194.752C189.809 188.317 194.926 182.121 199.911 175.941H199.909Z" fill="#1A1A1A"/>
<path fill-rule="evenodd" clip-rule="evenodd" d="M45.5802 146.316C43.3172 146.333 41.1718 146.337 39.1438 146.372C36.7677 148.752 34.3176 151.074 32.0264 153.385C34.0065 153.351 35.7232 153.682 37.8905 153.76C40.3928 151.26 42.9364 148.767 45.5823 146.313L45.5802 146.316Z" fill="#1A1A1A"/>
<path fill-rule="evenodd" clip-rule="evenodd" d="M45.2231 138.921C43.1712 139.17 41.2259 139.358 39.3416 139.512C37.0351 141.676 34.8309 143.756 32.6724 145.798C34.4066 145.809 36.1974 145.788 38.0447 145.714C40.3599 143.511 42.8208 141.187 45.2231 138.921Z" fill="#1A1A1A"/>
<path fill-rule="evenodd" clip-rule="evenodd" d="M439.332 331C433.268 328.444 427.343 325.928 421.564 323.441C420.593 325.923 419.64 328.444 418.7 331H439.334H439.332Z" fill="#1A1A1A"/>
<path fill-rule="evenodd" clip-rule="evenodd" d="M195.446 121.637C188.274 122.012 181.464 122.341 174.977 122.648C170.978 126.612 167.02 130.633 162.938 134.472C169.427 134.511 175.92 134.42 182.904 134.325C186.956 130.031 191.245 125.833 195.444 121.637H195.446Z" fill="#1A1A1A"/>
<path fill-rule="evenodd" clip-rule="evenodd" d="M334.707 286.926C316.456 279.469 299.719 272.875 283.791 266.779C277.585 278.24 270.942 290.555 264.884 303.749C280.52 311.916 296.899 320.208 315.209 329.081C321.399 314.744 328.086 300.54 334.705 286.926H334.707Z" fill="#1A1A1A"/>
<path fill-rule="evenodd" clip-rule="evenodd" d="M231.371 246.295C219.823 242.005 208.831 238.19 198.639 234.436C192.703 242.921 186.654 251.917 180.77 261.012C190.512 265.993 201.241 271.053 212.206 276.171C218.594 266.151 224.969 255.838 231.369 246.297L231.371 246.295Z" fill="#1A1A1A"/>
<path fill-rule="evenodd" clip-rule="evenodd" d="M161.293 222.235C153.314 219.537 146.034 217.072 139.101 214.533C134.075 220.718 128.815 227.437 123.77 234.345C130.371 237.53 137.597 240.91 144.893 244.403C150.168 236.73 155.849 229.21 161.295 222.235H161.293Z" fill="#1A1A1A"/>
<path fill-rule="evenodd" clip-rule="evenodd" d="M135.141 213.307C128.532 211.091 122.342 209.132 116.408 207.343C111.438 213.205 106.614 219.156 101.645 225.074C107.289 227.483 113.04 229.902 119.261 232.912C124.651 226.001 129.814 219.344 135.141 213.307Z" fill="#1A1A1A"/>
<path fill-rule="evenodd" clip-rule="evenodd" d="M113.852 206.691C108.351 204.919 103.014 203.175 97.7761 201.402C93.4134 206.57 89.0485 211.649 84.5879 216.918C89.4119 219.076 94.5057 221.497 99.6888 223.83C104.541 217.985 109.332 212.209 113.85 206.689L113.852 206.691Z" fill="#1A1A1A"/>
<path fill-rule="evenodd" clip-rule="evenodd" d="M94.3162 200.353C89.6228 198.94 85.025 197.581 80.8255 196.228C76.4389 201.112 72.2742 205.657 68.166 210.541C72.1044 212.093 76.3431 213.852 80.9844 216.068C85.3623 210.509 89.9753 205.3 94.3162 200.353Z" fill="#1A1A1A"/>
<path fill-rule="evenodd" clip-rule="evenodd" d="M78.7669 195.791C74.4999 194.616 70.6768 193.27 66.8342 192.167C63.0698 196.228 59.2315 200.595 55.6543 204.826C59.1249 206.343 62.6934 208.029 66.8363 209.433C70.6834 205.042 74.7676 200.288 78.7647 195.791H78.7669Z" fill="#1A1A1A"/>
<path fill-rule="evenodd" clip-rule="evenodd" d="M64.7888 191.508C61.1115 190.52 57.6496 189.663 54.3814 188.708C50.9326 192.467 47.3836 196.165 44.1089 199.846C47.1008 200.982 50.3799 202.322 53.6351 203.93C57.2754 199.669 61.0223 195.616 64.7888 191.508Z" fill="#1A1A1A"/>
<path fill-rule="evenodd" clip-rule="evenodd" d="M52.876 188.237C49.7601 187.38 46.7791 186.471 43.9265 185.475C40.7388 188.905 37.5206 192.324 34.5156 195.659C37.0266 196.862 39.7988 198.057 42.6449 199.176C46.0502 195.575 49.4163 191.872 52.8782 188.237H52.876Z" fill="#1A1A1A"/>
<path fill-rule="evenodd" clip-rule="evenodd" d="M41.97 185.131C39.211 184.296 36.7609 183.355 34.3935 182.61C31.4625 185.547 28.5772 188.557 25.7246 191.476C27.8244 192.777 30.2309 193.952 32.8355 195.003C35.9057 191.64 38.8911 188.399 41.9722 185.131H41.97Z" fill="#1A1A1A"/>
<path fill-rule="evenodd" clip-rule="evenodd" d="M32.653 182.467C30.3595 181.677 28.0792 181.013 25.8684 180.405C23.451 182.933 20.7833 185.694 18.3311 188.379C20.3177 189.197 22.2564 190.128 24.3845 191.037C27.0608 188.23 29.8373 185.408 32.653 182.465V182.467Z" fill="#1A1A1A"/>
<path fill-rule="evenodd" clip-rule="evenodd" d="M25.2657 179.944C23.3574 179.165 21.4644 178.444 19.5191 177.804C17.2083 180.195 14.7125 182.87 12.4321 185.285C14.1511 186.148 15.8179 187.068 17.613 187.955C20.124 185.298 22.7373 182.684 25.2679 179.946L25.2657 179.944Z" fill="#1A1A1A"/>
<path fill-rule="evenodd" clip-rule="evenodd" d="M18.6333 177.265C16.8774 176.611 15.302 176.034 13.6744 175.538C11.418 177.769 9.20725 179.95 7.04004 182.275C8.49355 182.974 9.89702 183.82 11.3658 184.746C13.7658 182.288 16.1484 179.743 18.6312 177.265H18.6333Z" fill="#1A1A1A"/>
<path fill-rule="evenodd" clip-rule="evenodd" d="M146.464 169.592C140.232 168.955 134.233 168.473 128.48 167.843C124.226 172.42 119.887 177.107 115.56 181.729C121.11 182.66 126.652 183.774 132.876 185.034C137.415 179.786 141.906 174.567 146.464 169.592Z" fill="#1A1A1A"/>
<path fill-rule="evenodd" clip-rule="evenodd" d="M125.867 167.428C120.443 166.746 115.142 166.285 110.381 165.651C106.212 169.927 102.089 174.3 98.2178 178.583C102.931 179.496 107.794 180.418 113.047 181.258C117.216 176.772 121.611 171.989 125.867 167.428Z" fill="#1A1A1A"/>
<path fill-rule="evenodd" clip-rule="evenodd" d="M108.018 165.389C103.07 164.913 98.6335 164.491 94.3295 164.078C90.6021 167.86 86.692 171.916 82.9712 175.8C87.1098 176.579 91.3898 177.367 95.8961 178.321C99.8172 173.902 103.954 169.54 108.018 165.389Z" fill="#1A1A1A"/>
<path fill-rule="evenodd" clip-rule="evenodd" d="M92.2991 163.844C88.0865 163.442 84.0872 163.197 80.2684 162.844C76.7717 166.372 73.0531 170.273 69.6782 173.744C73.3142 174.357 77.1264 174.811 81.0322 175.426C84.5985 171.706 88.5739 167.65 92.3012 163.844H92.2991Z" fill="#1A1A1A"/>
<path fill-rule="evenodd" clip-rule="evenodd" d="M78.3993 162.708C74.7133 162.299 71.2688 161.799 67.8112 161.663C64.5626 164.893 61.2356 168.256 57.9521 171.732C61.0507 172.266 64.3493 172.879 67.907 173.539C71.3297 169.886 74.9591 166.229 78.3993 162.708Z" fill="#1A1A1A"/>
<path fill-rule="evenodd" clip-rule="evenodd" d="M66.2097 161.606C62.9894 161.299 60.0192 161.015 57.0056 160.816C53.8353 163.878 50.6497 167.029 47.895 169.955C50.5366 170.483 53.3653 171.028 56.4899 171.42C59.6689 168.029 62.8327 164.826 66.2076 161.606H66.2097Z" fill="#1A1A1A"/>
<path fill-rule="evenodd" clip-rule="evenodd" d="M55.6502 160.715C52.7628 160.42 49.9493 160.232 47.4296 159.959C44.5161 162.794 41.6482 165.718 38.813 168.542C41.1869 169.098 43.909 169.382 46.4657 169.758C49.4554 166.8 52.4168 163.777 55.6502 160.717V160.715Z" fill="#1A1A1A"/>
<path fill-rule="evenodd" clip-rule="evenodd" d="M45.9784 160.005C43.4173 159.778 41.0325 159.55 38.7717 159.341C36.2955 161.903 33.6866 164.48 31.0581 166.99C33.2188 167.354 35.51 167.906 37.6925 168.393C40.4146 165.564 43.1236 162.879 45.9784 160.005Z" fill="#1A1A1A"/>
<path fill-rule="evenodd" clip-rule="evenodd" d="M37.3857 159.191C35.1967 159.038 33.2406 158.782 31.2366 158.685C28.8496 160.951 26.4517 163.307 24.043 165.699C25.8925 166.04 27.6332 166.454 29.6046 166.778C32.1766 164.262 34.8464 161.689 37.3857 159.189V159.191Z" fill="#1A1A1A"/>
<path fill-rule="evenodd" clip-rule="evenodd" d="M30.0876 158.481C28.2033 158.254 26.5496 158.051 24.7914 157.897C22.5089 160.124 20.2133 162.281 17.9634 164.599C19.5083 164.974 21.1707 165.246 22.8962 165.683C25.2505 163.275 27.705 160.849 30.0898 158.481H30.0876Z" fill="#1A1A1A"/>
<path fill-rule="evenodd" clip-rule="evenodd" d="M24.0514 157.856C22.463 157.594 21.1052 157.259 19.6952 156.993C17.6324 159.055 15.5044 161.145 13.5874 163.082C14.832 163.452 16.2507 163.809 17.5606 164.246C19.6974 162.111 21.9364 159.942 24.0514 157.856Z" fill="#1A1A1A"/>
<path fill-rule="evenodd" clip-rule="evenodd" d="M18.7965 156.811C17.5605 156.567 16.2158 156.493 15.0974 156.192C13.1434 158.118 11.1764 160.027 9.37256 161.866C10.38 162.206 11.3918 162.576 12.5755 162.894C14.5469 160.964 16.6793 158.964 18.7986 156.811H18.7965Z" fill="#1A1A1A"/>
<path fill-rule="evenodd" clip-rule="evenodd" d="M4.74443 157.971C4.36364 157.646 4.04378 157.142 3.77179 156.783C2.47277 158.157 1.17375 159.367 0.0901402 160.583C0.0705569 161.18 0.279446 161.708 0.542732 162.219C1.96578 160.81 3.27351 159.464 4.74225 157.971H4.74443Z" fill="#1A1A1A"/>
<path fill-rule="evenodd" clip-rule="evenodd" d="M30.0786 146.753C33.1858 146.095 36.2386 145.435 39.744 144.742C40.5687 144.322 41.3455 144.13 42.3377 143.76C38.6169 144.669 35.2312 145.389 31.9586 146.162C31.1927 146.679 30.6813 146.441 30.0786 146.753Z" fill="#1A1A1A"/>
<path fill-rule="evenodd" clip-rule="evenodd" d="M51.2329 143.284C55.6326 142.903 60.0846 142.914 64.9303 142.693C65.8399 142.609 66.8669 142.533 67.9287 142.21C62.8676 142.693 58.2307 142.585 53.757 142.853C52.7038 143.245 51.9009 143.104 51.2329 143.286V143.284Z" fill="#1A1A1A"/>
<path fill-rule="evenodd" clip-rule="evenodd" d="M139.425 152.427C133.813 152.07 128.245 151.87 123.217 151.546C119.187 155.577 115.205 159.678 111.319 163.853C116.291 164.352 121.589 164.835 126.866 165.447C131.026 160.955 135.33 156.497 139.423 152.424L139.425 152.427Z" fill="#1A1A1A"/>
<path fill-rule="evenodd" clip-rule="evenodd" d="M120.771 151.405C115.749 151.325 110.982 151.224 106.506 151.031C102.874 154.757 98.8793 158.659 95.3608 162.379C99.5952 162.795 104.195 163.117 108.945 163.504C112.792 159.442 116.846 155.337 120.771 151.408V151.405Z" fill="#1A1A1A"/>
<path fill-rule="evenodd" clip-rule="evenodd" d="M104.349 151.014C99.9149 150.905 95.748 150.912 91.6377 150.814C88.1475 154.136 84.666 157.67 81.2847 161.31C85.1447 161.52 89.1376 161.799 93.3001 162.286C96.7642 158.583 100.705 154.664 104.352 151.011L104.349 151.014Z" fill="#1A1A1A"/>
<path fill-rule="evenodd" clip-rule="evenodd" d="M89.7227 150.696C85.8082 150.616 82.1592 150.685 78.6168 150.57C75.268 153.779 72.0107 156.978 68.8447 160.152C72.1804 160.299 75.6706 160.719 79.4088 161.124C82.8163 157.649 86.2956 154.058 89.7227 150.696Z" fill="#1A1A1A"/>
<path fill-rule="evenodd" clip-rule="evenodd" d="M76.9087 150.49C73.399 150.557 70.344 150.392 67.1432 150.423C63.9881 153.467 60.9201 156.398 57.9478 159.379C60.9005 159.646 63.9816 159.897 67.2455 160.1C70.4092 156.869 73.6274 153.814 76.9087 150.49Z" fill="#1A1A1A"/>
<path fill-rule="evenodd" clip-rule="evenodd" d="M65.6789 150.315C62.5456 150.28 59.706 150.269 56.8708 150.167C53.9638 152.972 51.1525 155.744 48.3281 158.572C50.8609 159.062 53.6091 159.185 56.4856 159.384C59.5711 156.322 62.4672 153.364 65.6811 150.315H65.6789Z" fill="#1A1A1A"/>
<path fill-rule="evenodd" clip-rule="evenodd" d="M55.548 150.2C52.9021 150.2 50.2126 150.319 47.9192 150.256C45.2646 152.738 42.5447 155.396 39.8574 157.941C42.1661 158.077 44.5422 158.27 47.051 158.566C49.7644 155.755 52.6953 153 55.548 150.2Z" fill="#1A1A1A"/>
<path fill-rule="evenodd" clip-rule="evenodd" d="M153.486 137.473C147.583 137.536 141.886 137.621 136.564 137.753C132.68 141.643 128.807 145.385 124.981 149.243C130.217 149.419 135.724 149.681 141.253 149.919C145.398 145.733 149.556 141.49 153.486 137.476V137.473Z" fill="#1A1A1A"/>
<path fill-rule="evenodd" clip-rule="evenodd" d="M134.079 137.928C128.883 137.945 123.854 138.173 119.176 138.326C115.499 141.899 111.795 145.472 108.229 149.021C112.779 148.975 117.655 149.049 122.568 149.276C126.324 145.329 130.162 141.631 134.079 137.928Z" fill="#1A1A1A"/>
<path fill-rule="evenodd" clip-rule="evenodd" d="M116.811 138.365C112.204 138.456 107.744 138.638 103.531 138.826C100.174 142.052 96.7552 145.381 93.3325 148.88C97.3688 148.908 101.601 148.988 105.966 149.055C109.524 145.454 113.227 141.814 116.809 138.365H116.811Z" fill="#1A1A1A"/>
<path fill-rule="evenodd" clip-rule="evenodd" d="M101.597 138.848C97.4059 139.086 93.7874 139.159 89.9643 139.376C86.5699 142.529 83.4888 145.556 80.2271 148.707C83.8695 148.724 87.5751 148.685 91.544 148.763C94.7513 145.413 98.1762 142.085 101.597 138.848Z" fill="#1A1A1A"/>
<path fill-rule="evenodd" clip-rule="evenodd" d="M88.004 139.54C84.5226 139.607 81.1129 139.705 77.7206 139.904C74.5786 142.931 71.5715 145.805 68.6558 148.633C71.6955 148.787 74.9659 148.808 78.5257 148.731C81.6743 145.567 84.825 142.602 88.004 139.54Z" fill="#1A1A1A"/>
<path fill-rule="evenodd" clip-rule="evenodd" d="M76.0536 139.956C72.7353 140.183 69.8174 140.308 67.017 140.421C64.0512 143.152 61.018 145.907 58.3003 148.577C61.0724 148.622 63.9707 148.713 67.1498 148.633C70.0677 145.816 73.0226 142.948 76.0536 139.956Z" fill="#1A1A1A"/>
<path fill-rule="evenodd" clip-rule="evenodd" d="M65.272 140.75C62.3215 140.994 59.7104 141.131 57.0492 141.289C54.3358 143.855 51.4984 146.502 48.8765 149.15C51.3809 148.958 54.016 148.923 56.7663 148.811C59.4928 146.248 62.204 143.688 65.272 140.752V140.75Z" fill="#1A1A1A"/>
<path fill-rule="evenodd" clip-rule="evenodd" d="M146.59 125.448C141.188 125.755 136.074 125.965 131.131 126.368C127.466 129.86 123.928 133.241 120.351 136.88C125.229 136.551 130.108 136.517 135.395 136.363C138.988 132.717 142.739 129.077 146.588 125.448H146.59Z" fill="#1A1A1A"/>
<path fill-rule="evenodd" clip-rule="evenodd" d="M128.657 126.716C123.817 126.937 119.37 127.353 114.883 127.824C111.473 130.96 108.17 134.156 104.789 137.411C109.147 137.047 113.39 137.036 118.104 136.889C121.655 133.418 125.223 129.887 128.657 126.716Z" fill="#1A1A1A"/>
<path fill-rule="evenodd" clip-rule="evenodd" d="M112.811 128C108.551 128.328 104.602 128.748 100.602 129.181C97.3646 132.111 94.2378 135.162 90.9805 138.222C94.8362 137.831 98.6223 137.751 102.857 137.439C106.031 134.372 109.406 131.209 112.811 128Z" fill="#1A1A1A"/>
<path fill-rule="evenodd" clip-rule="evenodd" d="M98.6548 129.322C94.8861 129.657 91.3372 129.861 87.8144 130.196C84.7725 133.035 81.8198 135.842 78.8018 138.72C82.1918 138.545 85.5362 138.395 89.2897 138.227C92.497 135.206 95.4693 132.269 98.6548 129.322Z" fill="#1A1A1A"/>
<path fill-rule="evenodd" clip-rule="evenodd" d="M86.0632 130.408C82.882 130.618 79.7139 130.919 76.4544 131.38C73.593 133.992 70.7273 136.714 67.9443 139.319C70.9079 139.176 73.9803 138.882 77.1398 138.802C80.2187 135.922 83.1801 133.191 86.0632 130.408Z" fill="#1A1A1A"/>
<path fill-rule="evenodd" clip-rule="evenodd" d="M66.7171 133.412C63.9189 133.758 61.2382 134.076 58.7772 134.292C56.2488 136.614 53.5506 139.075 50.9482 141.518C53.4223 141.297 55.9703 141.239 58.5117 141.081C61.0946 138.547 63.8863 135.987 66.7171 133.414V133.412Z" fill="#1A1A1A"/>
<path fill-rule="evenodd" clip-rule="evenodd" d="M57.2667 134.422C54.8688 134.632 52.5819 134.786 50.3625 135.065C48.0386 137.302 45.6951 139.393 43.4604 141.578C45.4231 141.55 47.6643 141.39 49.8033 141.323C52.1924 139.096 54.7839 136.671 57.2667 134.422Z" fill="#1A1A1A"/>
<path fill-rule="evenodd" clip-rule="evenodd" d="M140.746 115.543C135.885 116.117 131.198 116.669 126.474 117.231C123.128 120.343 119.862 123.36 116.424 126.524C121.059 125.922 125.408 125.66 130.367 125.126C133.755 121.849 137.276 118.763 140.746 115.543Z" fill="#1A1A1A"/>
<path fill-rule="evenodd" clip-rule="evenodd" d="M124.303 117.459C119.975 117.93 115.627 118.543 111.495 119.06C108.429 121.951 105.235 124.87 102.034 127.863C106.081 127.415 109.989 127.101 114.356 126.738C117.788 123.524 121.065 120.536 124.303 117.457V117.459Z" fill="#1A1A1A"/>
<path fill-rule="evenodd" clip-rule="evenodd" d="M109.517 119.292C105.675 119.729 101.906 120.246 98.0415 120.826C95.0975 123.587 92.284 126.115 89.2095 128.943C92.7279 128.608 96.3204 128.324 100.1 128.073C103.24 125.063 106.486 122.074 109.517 119.292Z" fill="#1A1A1A"/>
<path fill-rule="evenodd" clip-rule="evenodd" d="M96.3597 121.088C92.9478 121.609 89.5381 122.059 86.3004 122.496C83.4869 125.076 80.5451 127.664 77.749 130.205C80.9607 129.876 84.1223 129.529 87.4558 129.153C90.5391 126.363 93.457 123.723 96.3597 121.088Z" fill="#1A1A1A"/>
<path fill-rule="evenodd" clip-rule="evenodd" d="M75.8642 124.717C72.9289 125.189 70.2112 125.513 67.6588 125.842C65.0216 128.255 62.3605 130.631 59.8604 133.061C62.3714 132.799 64.9411 132.54 67.7916 132.176C70.444 129.711 73.0856 127.292 75.8642 124.719V124.717Z" fill="#1A1A1A"/>
<path fill-rule="evenodd" clip-rule="evenodd" d="M65.766 126.567C63.168 126.913 60.8528 127.277 58.4919 127.714C56.0375 129.899 53.6288 132.063 51.0503 134.392C53.2654 134.102 55.6611 133.92 58.0568 133.721C60.5656 131.323 63.1158 128.949 65.7682 126.565L65.766 126.567Z" fill="#1A1A1A"/>
<path fill-rule="evenodd" clip-rule="evenodd" d="M151.175 104.046C146.051 104.849 141.212 105.565 136.559 106.368C133.217 109.147 130.047 112.003 126.618 115.132C131.307 114.416 136.042 113.905 140.879 113.28C144.327 110.094 147.733 107.071 151.173 104.044L151.175 104.046Z" fill="#1A1A1A"/>
<path fill-rule="evenodd" clip-rule="evenodd" d="M134.351 106.6C129.771 107.387 125.397 108.002 121.106 108.744C118.134 111.499 115.02 114.156 111.865 117.043C116.028 116.441 120.325 115.913 124.671 115.253C127.854 112.362 131.035 109.545 134.351 106.6Z" fill="#1A1A1A"/>
<path fill-rule="evenodd" clip-rule="evenodd" d="M146.214 96.3618C141.555 97.182 137.09 98.0822 132.726 98.8959C129.586 101.672 126.515 104.336 123.441 107.009C127.56 106.303 132.031 105.622 136.723 104.825C139.821 102.07 143.055 99.2226 146.216 96.3618H146.214Z" fill="#1A1A1A"/>
<path fill-rule="evenodd" clip-rule="evenodd" d="M196.887 99.2766C190.185 100.201 183.944 101.06 178.008 101.676C174.059 105.076 170.443 108.564 166.944 111.836C172.706 111.354 178.842 110.661 185.348 109.962C189.049 106.433 192.898 102.856 196.884 99.2788L196.887 99.2766Z" fill="#1A1A1A"/>
<path fill-rule="evenodd" clip-rule="evenodd" d="M16.0331 165.24C14.61 164.848 13.3066 164.433 12.062 164.097C10.1298 166.006 8.13231 167.953 6.23926 170.096C7.20101 170.596 8.33467 171.197 9.53142 171.743C11.5985 169.659 13.8223 167.38 16.0331 165.24Z" fill="#1A1A1A"/>
<path fill-rule="evenodd" clip-rule="evenodd" d="M21.3645 166.586C19.6955 166.194 18.1484 165.768 16.6623 165.383C14.3928 167.676 12.2256 169.882 10.1606 171.976C11.3618 172.634 12.6847 173.249 14.1295 173.878C16.4795 171.442 18.9296 168.949 21.3645 166.586Z" fill="#1A1A1A"/>
<path fill-rule="evenodd" clip-rule="evenodd" d="M27.5591 167.99C25.6443 167.65 23.9035 167.179 22.2259 166.7C19.6801 169.273 17.23 171.71 14.9409 174.091C16.5076 174.597 18.0829 175.192 19.9521 175.664C22.4652 173.097 25.0785 170.518 27.5612 167.99H27.5591Z" fill="#1A1A1A"/>
<path fill-rule="evenodd" clip-rule="evenodd" d="M35.4684 169.568C33.2294 169.085 31.0557 168.574 28.8972 168.232C26.3579 170.749 23.6967 173.571 21.127 176.235C23.07 176.763 24.9653 177.535 26.9258 178.302C29.7153 175.302 32.6615 172.452 35.4684 169.565V169.568Z" fill="#1A1A1A"/>
<path fill-rule="evenodd" clip-rule="evenodd" d="M44.0613 170.987C41.4437 170.596 38.8391 170.204 36.6458 169.704C33.7823 172.543 30.8383 175.43 27.9922 178.406C30.2051 179.126 32.5399 179.752 34.9508 180.433C37.836 177.343 40.8736 174.22 44.0613 170.987Z" fill="#1A1A1A"/>
<path fill-rule="evenodd" clip-rule="evenodd" d="M53.8618 172.857C50.8481 172.392 48.0804 171.868 45.4388 171.312C42.1401 174.658 39.0503 177.871 36.165 180.916C38.589 181.608 41.2132 182.472 43.907 183.283C47.2905 179.71 50.4195 176.428 53.8618 172.855V172.857Z" fill="#1A1A1A"/>
<path fill-rule="evenodd" clip-rule="evenodd" d="M64.926 175.179C61.4989 174.595 58.3155 173.935 55.2105 173.305C51.8901 176.832 48.587 180.228 45.2622 183.738C48.1083 184.664 51.1481 185.566 54.2618 186.475C57.7824 182.64 61.4489 178.797 64.926 175.179Z" fill="#1A1A1A"/>
<path fill-rule="evenodd" clip-rule="evenodd" d="M78.9239 177.207C74.9898 176.423 71.2233 175.837 67.7201 175.326C64.1255 178.905 60.4786 182.822 56.9058 186.646C60.2197 187.436 63.7969 188.286 67.3654 189.464C71.2951 185.153 75.0355 181.149 78.9261 177.207H78.9239Z" fill="#1A1A1A"/>
<path fill-rule="evenodd" clip-rule="evenodd" d="M93.3178 179.752C88.8854 178.888 84.5205 177.912 80.6909 177.157C76.7655 181.275 72.7923 185.335 69.041 189.544C72.8206 190.697 76.8199 191.957 81.1848 192.987C85.1842 188.544 89.2161 184.233 93.3178 179.754V179.752Z" fill="#1A1A1A"/>
<path fill-rule="evenodd" clip-rule="evenodd" d="M110.427 182.803C105.294 181.911 100.202 181.139 95.8044 179.873C91.6636 184.435 87.4314 189.035 83.5039 193.515C87.8688 194.776 92.4535 196.06 97.3079 197.28C101.747 192.305 105.996 187.596 110.429 182.803H110.427Z" fill="#1A1A1A"/>
<path fill-rule="evenodd" clip-rule="evenodd" d="M129.812 186.897C123.78 185.653 118.234 184.54 113.021 183.359C108.545 188.271 104.023 193.179 99.606 198.297C105.046 199.801 110.063 201.677 115.821 203.146C120.577 197.682 125.28 192.242 129.812 186.897Z" fill="#1A1A1A"/>
<path fill-rule="evenodd" clip-rule="evenodd" d="M152.217 192.019C145.163 190.639 138.912 189.334 132.608 187.964C127.904 193.359 123.21 198.851 118.51 204.22C124.396 206.163 130.63 208.065 137.171 210.013C142.345 203.713 147.263 197.791 152.217 192.019Z" fill="#1A1A1A"/>
<path fill-rule="evenodd" clip-rule="evenodd" d="M385.424 160.834C380.983 157.289 376.635 153.712 372.662 150.447C366.243 154.076 359.852 157.456 353.398 161.288C357 165.043 360.566 168.979 364.876 173.006C371.835 168.899 378.789 164.815 385.421 160.834H385.424Z" fill="#1A1A1A"/>
<path fill-rule="evenodd" clip-rule="evenodd" d="M167.579 153.559C165.813 151.782 164.087 150.129 162.292 148.713C159.792 150.462 157.187 152.325 154.615 154.097C156.212 155.779 157.72 157.586 159.341 159.618C162.109 157.551 164.87 155.5 167.582 153.559H167.579Z" fill="#1A1A1A"/>
<path fill-rule="evenodd" clip-rule="evenodd" d="M97.6584 87.9223C96.9708 86.8749 96.3398 85.7842 95.7589 84.6914C93.509 86.5503 91.1067 88.5628 88.748 90.5234C89.1158 91.7807 89.6358 92.9298 90.2233 94.1611C92.6908 92.0901 95.1996 89.9846 97.6563 87.9223H97.6584Z" fill="#1A1A1A"/>
<path fill-rule="evenodd" clip-rule="evenodd" d="M462.912 269.62C457.362 265.281 452.126 261.124 447.041 257.465C440.42 259.499 433.923 261.908 427.105 264.206C432.049 268.205 436.915 272.527 441.915 277.183C449.026 274.513 456.3 272.107 462.915 269.618L462.912 269.62Z" fill="#1A1A1A"/>
<path fill-rule="evenodd" clip-rule="evenodd" d="M113.503 101.997C112.957 101.397 112.526 100.813 112.098 100.25C110.635 101.311 109.165 102.352 107.744 103.39C108.072 104.033 108.412 104.788 108.792 105.42C110.366 104.284 111.88 103.157 113.503 101.995V101.997Z" fill="#1A1A1A"/>
<path fill-rule="evenodd" clip-rule="evenodd" d="M163.889 74.5725C162.571 74.012 161.322 73.5164 160.086 73.0598C158.221 74.3258 156.358 75.635 154.452 77.0156C155.492 77.641 156.635 78.1972 157.934 78.9156C159.875 77.403 161.883 75.9899 163.889 74.5746V74.5725Z" fill="#1A1A1A"/>
<path fill-rule="evenodd" clip-rule="evenodd" d="M444.334 125.926C439.108 123.78 434.249 121.906 429.632 120.14C423.661 122.611 418.008 124.979 412.599 127.489C416.77 129.568 421.163 131.698 426.078 134.316C432.389 131.38 438.52 128.467 444.334 125.926Z" fill="#1A1A1A"/>
<path fill-rule="evenodd" clip-rule="evenodd" d="M142.515 71.2269C141.719 70.8525 141.122 70.3613 140.491 69.9912C138.973 70.9823 137.526 72.1011 136.063 73.1809C136.599 73.6549 137.093 74.2153 137.739 74.6481C139.195 73.538 140.853 72.363 142.515 71.2269Z" fill="#1A1A1A"/>
<path fill-rule="evenodd" clip-rule="evenodd" d="M109.289 63.0513C108.867 62.744 108.405 62.5081 107.99 62.2246C106.895 63.0707 105.696 63.945 104.646 64.7522C105.009 65.0811 105.324 65.4143 105.649 65.7952C106.848 64.8928 108.092 63.9731 109.289 63.0513Z" fill="#1A1A1A"/>
<path fill-rule="evenodd" clip-rule="evenodd" d="M29.0646 146.378C28.8861 145.924 28.6511 145.469 28.5293 145.032C27.6546 145.629 26.8386 146.311 25.9639 146.934C26.0313 147.462 26.1532 147.962 26.275 148.462C27.2607 147.763 28.1376 147.071 29.0646 146.378Z" fill="#1A1A1A"/>
<path fill-rule="evenodd" clip-rule="evenodd" d="M466.927 196.371C463.206 194.594 460.195 192.917 457.018 191.312C452.353 192.629 447.886 193.822 443.434 195.112C446.164 196.758 449.256 198.678 452.529 200.496C457.405 199.171 462.181 197.73 466.927 196.371Z" fill="#1A1A1A"/>
<path fill-rule="evenodd" clip-rule="evenodd" d="M193.112 65.9771C191.806 65.5919 190.473 65.3279 189.343 64.9341C187.526 66.1178 185.607 67.3469 183.888 68.4874C184.983 68.9678 186.008 69.3768 187.217 69.8269C189.026 68.5869 191.141 67.2193 193.112 65.9771Z" fill="#1A1A1A"/>
<path fill-rule="evenodd" clip-rule="evenodd" d="M145.002 36.7154C144.173 36.5618 143.344 36.4298 142.53 36.3887C141.164 37.2543 139.862 38.2432 138.555 39.1911C139.329 39.3252 140.108 39.4724 140.889 39.6433C142.286 38.6219 143.644 37.6503 145.002 36.7154Z" fill="#1A1A1A"/>
<path fill-rule="evenodd" clip-rule="evenodd" d="M124.361 72.562C123.608 72.324 122.866 72.1552 122.172 71.9431C121.004 72.7827 119.681 73.7046 118.454 74.5356C119.152 74.7823 119.796 75.0117 120.499 75.2627C121.822 74.3452 123.043 73.4817 124.363 72.562H124.361Z" fill="#1A1A1A"/>
<path fill-rule="evenodd" clip-rule="evenodd" d="M106.621 91.8692C105.868 91.6225 105.163 91.339 104.471 91.1572C103.37 91.9038 102.16 92.7045 100.999 93.4489C101.697 93.6956 102.395 93.9553 103.046 94.2496C104.201 93.4641 105.413 92.6742 106.621 91.8692Z" fill="#1A1A1A"/>
<path fill-rule="evenodd" clip-rule="evenodd" d="M223.751 102.196C222.117 101.77 220.55 101.335 219.044 100.932C217.062 101.999 215.132 103.014 213.041 104.131C214.588 104.483 216.107 104.966 217.624 105.414C219.595 104.314 221.753 103.224 223.751 102.196Z" fill="#1A1A1A"/>
<path fill-rule="evenodd" clip-rule="evenodd" d="M88.3913 108.768C87.6928 108.524 86.9878 108.201 86.3459 107.944C85.2645 108.664 84.2897 109.324 83.2583 110.028C83.8458 110.3 84.4377 110.607 85.0861 110.936C86.1697 110.188 87.2576 109.534 88.3913 108.766V108.768Z" fill="#1A1A1A"/>
<path fill-rule="evenodd" clip-rule="evenodd" d="M97.256 80.1231C96.6446 79.9651 96.0462 79.9045 95.4391 79.792C94.5492 80.3979 93.6157 81.0752 92.7192 81.6444C93.2197 81.7526 93.8289 81.9084 94.3381 82.0815C95.326 81.3998 96.2638 80.742 97.256 80.1253V80.1231Z" fill="#1A1A1A"/>
<path fill-rule="evenodd" clip-rule="evenodd" d="M546 236.243C541.035 234.75 535.784 232.977 530.477 231.439C525.562 232.49 520.252 233.239 515.261 234.159C520.033 235.617 525.2 237.327 529.974 239.021C535.551 238.084 540.71 237.221 546 236.245V236.243Z" fill="#1A1A1A"/>
<path fill-rule="evenodd" clip-rule="evenodd" d="M164.4 45.6377C163.306 45.681 162.32 45.6918 161.335 45.7005C160.179 46.434 158.974 47.2001 157.729 48.0203C158.71 47.9748 159.609 48.057 160.599 48.0484C161.844 47.2304 163.09 46.4038 164.398 45.6377H164.4Z" fill="#1A1A1A"/>
<path fill-rule="evenodd" clip-rule="evenodd" d="M5.72138 166.389C5.38629 166.14 5.0512 165.883 4.83143 165.645C4.20694 166.043 3.5237 166.497 2.95361 166.861C3.17338 167.127 3.44972 167.354 3.72607 167.64C4.4093 167.179 5.03814 166.794 5.72138 166.391V166.389Z" fill="#1A1A1A"/>
<path fill-rule="evenodd" clip-rule="evenodd" d="M300.767 139.865C298.295 139.263 295.647 138.904 293.125 138.359C290.641 139.222 288.38 139.977 286.158 140.865C288.447 141.284 290.926 141.875 293.513 142.466C295.93 141.574 298.413 140.717 300.765 139.865H300.767Z" fill="#1A1A1A"/>
<path fill-rule="evenodd" clip-rule="evenodd" d="M292.329 184.698C290.099 183.307 287.893 181.922 285.673 180.717C282.566 181.909 279.398 183.311 276.208 184.664C278.273 186.038 280.325 187.377 282.398 188.94C285.856 187.373 289.131 186.059 292.329 184.696V184.698Z" fill="#1A1A1A"/>
<path fill-rule="evenodd" clip-rule="evenodd" d="M238.325 129.335C236.315 128.188 234.461 127.164 232.74 126.167C230.094 127.632 227.337 129.187 224.582 130.771C226.314 131.834 227.861 133.111 229.791 134.208C232.72 132.565 235.516 130.932 238.325 129.335Z" fill="#1A1A1A"/>
</g>
<defs>
<clipPath id="clip0_277_3">
<rect width="725" height="394" fill="white" transform="matrix(-1 0 0 1 2012 0)"/>
</clipPath>
<clipPath id="clip1_277_3">
<rect width="566" height="308" fill="white" transform="translate(-20 23)"/>
</clipPath>
</defs>
</svg>
